<?xml version="1.0" standalone="no"?><!DOCTYPE svg PUBLIC "-//W3C//DTD SVG 1.1//EN" "http://www.w3.org/Graphics/SVG/1.1/DTD/svg11.dtd"><svg t="1500903014417" class="icon" style="" viewBox="0 0 1024 1024" version="1.1" xmlns="http://www.w3.org/2000/svg" p-id="9258" xmlns:xlink="http://www.w3.org/1999/xlink" width="16" height="16"><defs><style type="text/css"></style></defs><path d="M995.862 290.55L809.057 103.748c-13.947-13.945-33.132-21.047-52.893-19.524a62.988 62.988 0 0 0-5.43-0.24h-99.522l-6.98 3.883c-36.87 20.507-83.915 31.8-132.465 31.8s-95.592-11.293-132.462-31.8l-6.98-3.883h-99.524c-25.377 0-48.186 13.844-59.978 35.83l-184.65 184.65c-12.746 12.747-19.766 29.693-19.766 47.718s7.02 34.97 19.764 47.717l134.911 134.913c11.29 11.287 25.876 18.08 41.588 19.475v326.048c0 37.568 30.561 68.132 68.129 68.132h477.934c37.568 0 68.132-30.562 68.132-68.132V540.421c15.899-1.296 30.675-8.116 42.08-19.52l134.917-134.915c26.31-26.315 26.31-69.126 0-95.436z m-43.548 51.889L817.398 477.354c-1.409 1.411-3.018 1.707-4.118 1.707a5.823 5.823 0 0 1-4.066-1.614l-51.93-49.025v451.91a6.553 6.553 0 0 1-6.549 6.55H272.801a6.553 6.553 0 0 1-6.546-6.55V444.508l-51.525 46.925a5.835 5.835 0 0 1-3.984 1.537c-1.1 0-2.705-0.296-4.116-1.705L71.719 356.351c-1.427-1.429-1.727-3.058-1.727-4.172s0.3-2.742 1.727-4.171l186.398-186.396 5.955-5.345 2.67-6.592c0.768-1.894 2.816-4.108 6.061-4.108h83.8c45.07 23.37 98.522 35.683 155.169 35.683s110.1-12.314 155.171-35.683h83.76c0.33 0.009 0.656 0.064 0.98 0.11l4.397 0.631 4.398-0.637c1.403-0.196 3.26-0.155 5.036 1.623l186.802 186.8a5.912 5.912 0 0 1-0.002 8.345z" fill="#8a8a8a" p-id="9259"></path></svg>