<?xml version="1.0" standalone="no"?><!DOCTYPE svg PUBLIC "-//W3C//DTD SVG 1.1//EN" "http://www.w3.org/Graphics/SVG/1.1/DTD/svg11.dtd"><svg t="1500902137112" class="icon" style="" viewBox="0 0 1024 1024" version="1.1" xmlns="http://www.w3.org/2000/svg" p-id="4477" xmlns:xlink="http://www.w3.org/1999/xlink" width="32" height="32"><defs><style type="text/css"></style></defs><path d="M943.072853 375.037628 78.20413 375.037628c-5.368264 0-10.337439-2.602268-12.736069-6.729262-2.39863-4.125971-1.998517-9.136078 1.199315-12.869099l149.066037-173.97945c2.685155-3.143597 6.968715-5.010107 11.479449-5.010107l566.166667 0c4.511757 0 8.795317 1.866511 11.479449 5.010107l149.637042 173.97945c3.197832 3.733021 3.65525 8.694009 1.257643 12.81998C953.352987 372.385219 948.44214 375.037628 943.072853 375.037628L943.072853 375.037628zM106.417705 350.47828l808.326962 0L786.239921 201.059202 234.467079 201.059202 106.417705 350.47828 106.417705 350.47828z" p-id="4478" fill="#8a8a8a"></path><path d="M511.580444 839.700507c-4.340865 0-8.395204-1.670036-11.136641-4.617158L67.066465 370.420471c-4.969175-5.256724-3.998057-13.016455 2.170432-17.241686 6.16849-4.224208 15.134699-3.339048 20.046568 1.866511l422.296979 452.677916 420.298462-452.677916c4.968152-5.255701 13.992689-6.139837 20.103874-1.915629 6.112208 4.224208 7.139607 11.984962 2.227738 17.290805l-431.492408 464.662879C520.033977 838.030471 515.921309 839.700507 511.580444 839.700507L511.580444 839.700507 511.580444 839.700507z" p-id="4479" fill="#8a8a8a"></path><path d="M511.580444 833.708026c-5.940292 0-11.479449-3.192715-13.535271-8.30106L316.139194 366.68745l-101.662401-172.406628c-3.541663-6.040576-0.74292-13.408381 6.339382-16.503882 7.082302-2.947122 15.649422-0.63752 19.190061 5.403057l102.405321 173.97945 182.647877 460.242196c2.570545 6.434549-1.427512 13.409404-8.852622 15.570627C514.664689 833.511551 513.065262 833.708026 511.580444 833.708026L511.580444 833.708026z" p-id="4480" fill="#8a8a8a"></path><path d="M509.696538 833.708026c-1.543146 0-3.084245-0.196475-4.627391-0.687662-7.481392-2.161223-11.479449-9.185196-8.909927-15.570627l181.963285-458.621279 103.148241-175.599344c3.597945-6.040576 12.279674-8.350179 19.190061-5.403057 7.023974 3.094478 9.822716 10.462283 6.225795 16.504906L704.338586 368.308367 523.175527 825.406966C521.175987 830.466192 515.635807 833.708026 509.696538 833.708026L509.696538 833.708026z" p-id="4481" fill="#8a8a8a"></path></svg>