<?xml version="1.0" standalone="no"?><!DOCTYPE svg PUBLIC "-//W3C//DTD SVG 1.1//EN" "http://www.w3.org/Graphics/SVG/1.1/DTD/svg11.dtd"><svg t="1500903163003" class="icon" style="" viewBox="0 0 1067 1024" version="1.1" xmlns="http://www.w3.org/2000/svg" p-id="14202" xmlns:xlink="http://www.w3.org/1999/xlink" width="16.671875" height="16"><defs><style type="text/css"></style></defs><path d="M607.096917 600.835627C592.153856 615.067136 581.693696 623.961813 574.720256 629.583232 578.135808 611.153451 587.030528 574.57856 608.448896 502.567211 629.796139 431.196288 631.646208 418.743765 631.646208 412.624213 631.646208 401.950592 627.163307 392.486656 619.407147 385.940181 601.973589 371.566379 571.233536 374.412672 534.089387 395.404117 513.382571 407.002795 491.394901 425.930667 466.845611 452.82816L454.037248 467.059669 496.518229 499.792085 507.405355 489.047296C519.217451 477.590955 527.25824 470.119424 532.595072 465.138389 500.147285 571.732267 484.350336 637.979819 484.350336 667.65248 484.350336 681.101227 488.263979 692.272939 496.162475 700.740693 504.132096 709.421867 515.303808 713.975979 528.112171 713.975979 540.635861 713.975979 555.009664 709.137237 572.443221 699.246379 588.169045 690.351701 611.79328 670.854571 644.810368 639.829931L658.187947 627.021568 619.54944 589.450453 607.096917 600.835627 607.096917 600.835627ZM1011.413461 312.221056C985.654485 251.310293 948.581461 196.519083 901.688704 149.697493 854.724779 102.733568 799.933568 65.80288 739.165099 39.972693 612.860672-13.324203 466.987904-13.324203 340.612309 39.972693 279.772672 65.80288 225.123797 102.733568 178.088704 149.697493 131.124821 196.590251 94.051797 251.452629 68.363947 312.221056 41.751083 375.480021 28.16 442.368043 28.16 511.533056 28.16 580.626944 41.679915 647.514923 68.292779 710.70272 93.980629 771.542315 131.053653 826.2624 178.017536 873.368619 224.910293 920.261376 279.630379 957.263232 340.541141 983.022251 403.800107 1009.777451 470.759253 1023.155029 539.781973 1023.155029 608.875861 1023.155029 675.835008 1009.777451 739.093973 982.951083 800.004736 957.192064 854.724779 920.261376 901.617536 873.368619 948.581461 826.333568 985.583317 771.542315 1011.342293 710.70272 1038.026368 647.514923 1051.475115 580.626944 1051.475115 511.533056 1051.54624 442.368043 1038.097493 375.480021 1011.413461 312.221056L1011.413461 312.221056ZM986.366037 511.533056C986.366037 757.737771 786.129024 957.974827 539.853141 957.974827 293.648384 957.974827 93.411371 757.737771 93.411371 511.533056 93.411371 265.257173 293.648384 65.020117 539.853141 65.020117 786.129024 65.020117 986.366037 265.257173 986.366037 511.533056L986.366037 511.533056ZM593.790464 246.969685C584.113067 257.572139 579.132032 270.451669 579.132032 285.323563 579.132032 297.562624 583.116843 308.236245 590.944171 316.490496 598.913792 324.887083 609.231616 329.227691 620.972587 329.227691 630.507691 329.227691 644.668032 326.310229 657.618688 311.936427 667.723051 301.049344 672.846379 287.956395 672.846379 273.369131 672.846379 261.414656 668.719232 250.954496 660.820779 242.842581 643.600683 225.124352 612.291413 227.045632 593.790464 246.969685L593.790464 246.969685Z" p-id="14203" fill="#8a8a8a"></path></svg>