<?xml version="1.0" standalone="no"?><!DOCTYPE svg PUBLIC "-//W3C//DTD SVG 1.1//EN" "http://www.w3.org/Graphics/SVG/1.1/DTD/svg11.dtd"><svg t="1500903906841" class="icon" style="" viewBox="0 0 1088 1024" version="1.1" xmlns="http://www.w3.org/2000/svg" p-id="14976" xmlns:xlink="http://www.w3.org/1999/xlink" width="17" height="16"><defs><style type="text/css"></style></defs><path d="M85.258845 1024.000025c-47.011309 0-85.258857-37.315047-85.258857-83.178855l0-662.139583c0-45.863808 38.247548-83.178855 85.258857-83.178855l211.680266 0 0 63.65258-211.680266 0c-11.913765 0-21.611277 8.760011-21.611277 19.526275l0 662.139583c0 10.766264 9.692512 19.526275 21.611277 19.526275l860.201082 0c11.948765 0 21.675027-8.760011 21.675027-19.526275L967.134954 703.277122l63.64758 0 0 237.544049c0 45.863808-38.276298 83.178855-85.322607 83.178855L85.258845 1024.000025 85.258845 1024.000025zM447.5293 794.375986c-0.33625-1.821252-30.453788-187.143985 91.026364-361.132954 85.161357-121.992653 224.175282-205.650259 413.43302-248.877813l-230.71154-124.833907 32.235041-59.531325 333.98542 180.678977L891.914859 489.849353l-57.201322-36.201296L962.642448 251.362804C792.925984 290.884103 669.140829 364.834196 594.506985 471.36308 541.494418 546.988175 522.720645 628.687028 516.309387 683.907097c-6.885009 59.296325-1.582502 102.026378-0.952501 106.703884l1.357502 10.850014-67.710085 0.863751L447.5293 794.375986 447.5293 794.375986zM456.968062 792.623484c-1.391252-7.485009-27.670035-186.132734 89.457612-353.887945C639.424541 305.517872 797.813491 218.901513 1017.022516 181.176465l8.25626 47.78381C819.591018 264.32657 672.017082 344.00917 586.645725 465.855573 480.963092 616.617013 505.650623 790.338481 505.855624 791.998483L456.968062 792.623484 456.968062 792.623484 456.968062 792.623484zM888.936105 476.606837l-40.981302-25.937533L1005.098751 202.187742 734.288411 55.658807l23.096279-42.651304 316.504148 171.225215L888.936105 476.606837 888.936105 476.606837zM888.936105 476.606837" p-id="14977" fill="#707070"></path></svg>