<?xml version="1.0" standalone="no"?><!DOCTYPE svg PUBLIC "-//W3C//DTD SVG 1.1//EN" "http://www.w3.org/Graphics/SVG/1.1/DTD/svg11.dtd"><svg t="1500902941893" class="icon" style="" viewBox="0 0 1024 1024" version="1.1" xmlns="http://www.w3.org/2000/svg" p-id="7039" xmlns:xlink="http://www.w3.org/1999/xlink" width="32" height="32"><defs><style type="text/css"></style></defs><path d="M834.706286 935.058286h-696.32c-9.654857 0-17.554286-7.899429-17.554286-17.554286v-550.034286c0-9.654857 7.899429-17.554286 17.554286-17.554285h696.32c9.654857 0 17.554286 7.899429 17.554285 17.554285v550.034286c0 9.654857-7.899429 17.554286-17.554285 17.554286z" fill="" p-id="7040"></path><path d="M805.888 907.702857H167.204571c-9.654857 0-17.554286-7.899429-17.554285-17.554286V394.825143c0-9.654857 7.899429-17.554286 17.554285-17.554286h638.683429c9.654857 0 17.554286 7.899429 17.554286 17.554286v495.323428c0 9.654857-7.899429 17.554286-17.554286 17.554286z" fill="#FFFFFF" p-id="7041"></path><path d="M842.752 351.963429H129.755429l89.088-148.041143h534.820571z" fill="" p-id="7042"></path><path d="M812.909714 358.546286H159.451429l81.773714-135.606857h490.057143z" fill="#FFFFFF" p-id="7043"></path><path d="M237.275429 645.851429h21.942857v175.542857h-21.942857zM314.368 645.851429h21.942857v175.542857h-21.942857zM396.141714 645.851429h21.942857v175.542857h-21.942857zM121.856 361.472l36.278857-56.612571M851.090286 361.472l-60.416-95.963429" fill="" p-id="7044"></path></svg>