<?xml version="1.0" standalone="no"?><!DOCTYPE svg PUBLIC "-//W3C//DTD SVG 1.1//EN" "http://www.w3.org/Graphics/SVG/1.1/DTD/svg11.dtd"><svg t="1500903036393" class="icon" style="" viewBox="0 0 1024 1024" version="1.1" xmlns="http://www.w3.org/2000/svg" p-id="10032" xmlns:xlink="http://www.w3.org/1999/xlink" width="16" height="16"><defs><style type="text/css"></style></defs><path d="M511.999233 18.715974c92.114057 0 175.430163 38.744983 235.790812 101.319363 59.952804 62.225227 97.008204 148.046458 97.008204 242.607589 0 135.986234-65.837292 209.630644-143.851897 296.792502l-5.942836 6.641979c-0.466105 0.524369-0.93221 0.990474-1.398315 1.456579-123.45962 135.869637 3.903628 170.070118-176.6537 170.070118-189.180314-0.873946-50.630409-21.790415-187.490879-171.060459l-0.407842-0.466105-0.058263 0-5.942836-6.641979c-78.014113-87.161858-143.851897-160.806268-143.851897-296.792502 0-94.561131 37.113601-180.382854 97.066257-242.607589 60.302104-62.574527 143.676755-101.319363 235.732759-101.319363zm180.207712 154.805182c-46.144403-47.892284-109.826066-77.490162-180.207712-77.490162-70.323593 0-134.063604 29.597681-180.149659 77.490162-46.552249 48.24188-75.275792 115.128058-75.275792 189.122261 0 106.971147 56.690039 170.361366 123.867465 245.462508l6.001086 6.641979-0.058263 0c5.068895 5.476741 52.961377 58.379474 80.519732 124.741209l-0.058263 0 0.524369 1.340051c0 0.058263 7.39942 20.916475 44.629569 20.916475 32.452551 0 42.240746-15.78933 44.221724-19.925986 0.291316-0.757422 0.582634-1.573103 0.93221-2.330525 26.626263-64.089312 72.18817-115.652502 79.820638-123.984063l0.640893-0.757422 5.942836-6.641979c67.177426-75.101142 123.925518-138.49136 123.925518-245.462508 0-73.994203-28.78199-140.880381-75.275792-189.122261z" p-id="10033" fill="#8a8a8a"></path><path d="M611.862355 885.67065l0 18.119855c0 55.816295-44.920866 101.494505-99.863123 101.494505l0 0c-54.94206 0-99.863123-45.678308-99.863123-101.494505l0-18.119855 199.725753 0z" p-id="10034" fill="#8a8a8a"></path></svg>