<?xml version="1.0" standalone="no"?><!DOCTYPE svg PUBLIC "-//W3C//DTD SVG 1.1//EN" "http://www.w3.org/Graphics/SVG/1.1/DTD/svg11.dtd"><svg t="1500903060073" class="icon" style="" viewBox="0 0 1024 1024" version="1.1" xmlns="http://www.w3.org/2000/svg" p-id="10881" xmlns:xlink="http://www.w3.org/1999/xlink" width="16" height="16"><defs><style type="text/css"></style></defs><path d="M511.73 51.524c-260.158 0-471.058 210.898-471.058 471.058s210.899 471.058 471.058 471.058c260.158 0 471.058-210.898 471.058-471.058s-210.9-471.058-471.058-471.058zM802.183 813.035c-37.744 37.744-81.679 67.37-130.585 88.057-50.602 21.403-104.39 32.256-159.869 32.256-55.481 0-109.266-10.852-159.869-32.256-48.908-20.685-92.842-50.311-130.585-88.057s-67.37-81.679-88.057-130.585c-21.404-50.603-32.256-104.391-32.256-159.869 0-55.481 10.852-109.267 32.256-159.869 20.685-48.908 50.311-92.842 88.057-130.585s81.679-67.37 130.585-88.057c50.602-21.403 104.39-32.256 159.869-32.256s109.267 10.852 159.869 32.256c48.908 20.685 92.842 50.311 130.585 88.057 37.744 37.744 67.37 81.679 88.057 130.585 21.403 50.602 32.256 104.39 32.256 159.869 0 55.481-10.852 109.267-32.256 159.869-20.685 48.906-50.313 92.839-88.057 130.585zM747.258 492.436h-205.383v-264.266c0-16.651-13.498-30.144-30.144-30.144-16.651 0-30.144 13.498-30.144 30.144v324.555h265.675c16.651 0 30.144-13.498 30.144-30.144 0.001-16.645-13.495-30.143-30.143-30.143z" p-id="10882" fill="#8a8a8a"></path></svg>