<?xml version="1.0" standalone="no"?><!DOCTYPE svg PUBLIC "-//W3C//DTD SVG 1.1//EN" "http://www.w3.org/Graphics/SVG/1.1/DTD/svg11.dtd"><svg t="1500902053117" class="icon" style="" viewBox="0 0 1261 1024" version="1.1" xmlns="http://www.w3.org/2000/svg" p-id="2398" xmlns:xlink="http://www.w3.org/1999/xlink" width="39.40625" height="32"><defs><style type="text/css"></style></defs><path d="M118.153846 905.846154 118.153846 303.261538l461.193846 387.150769C594.313846 702.621538 612.036923 708.923077 630.153846 708.923077s35.84-6.301538 50.806154-18.510769L1142.153846 303.261538 1142.153846 905.846154 118.153846 905.846154zM1142.153846 118.153846l0 31.113846-512 429.292308L118.153846 149.267692 118.153846 118.153846 1142.153846 118.153846zM78.769231 0C35.446154 0 0 35.446154 0 78.769231l0 866.461538c0 43.323077 35.446154 78.769231 78.769231 78.769231l1102.769231 0c43.323077 0 78.769231-35.446154 78.769231-78.769231L1260.307692 78.769231c0-43.323077-35.446154-78.769231-78.769231-78.769231L78.769231 0z" p-id="2399" fill="#8a8a8a"></path></svg>