<?xml version="1.0" standalone="no"?><!DOCTYPE svg PUBLIC "-//W3C//DTD SVG 1.1//EN" "http://www.w3.org/Graphics/SVG/1.1/DTD/svg11.dtd"><svg t="1500902959168" class="icon" style="" viewBox="0 0 1024 1024" version="1.1" xmlns="http://www.w3.org/2000/svg" p-id="7718" xmlns:xlink="http://www.w3.org/1999/xlink" width="32" height="32"><defs><style type="text/css"></style></defs><path d="M960.256 398.848l-74.304 43.264c4.16 22.72 6.912 45.92 6.912 69.888 0 23.936-2.72 47.168-6.912 69.888l74.304 43.264c30.368 17.664 40.768 56.8 23.232 87.424l-63.456 110.848c-17.536 30.592-56.352 41.088-86.72 23.424l-75.072-43.712c-35.072 30.112-74.944 54.72-119.264 70.528L638.976 928c0 35.328-28.416 64-63.456 64l-126.944 0c-35.04 0-63.456-28.672-63.456-64l0-54.304c-44.32-15.808-84.192-40.416-119.264-70.528l-75.072 43.712c-30.368 17.664-69.184 7.168-86.72-23.424l-63.488-110.848c-17.536-30.624-7.136-69.76 23.232-87.424l74.304-43.264c-4.16-22.72-6.912-45.92-6.912-69.888 0-23.968 2.72-47.168 6.912-69.888l-74.304-43.264c-30.368-17.664-40.768-56.832-23.232-87.424L104 200.576c17.536-30.624 56.352-41.12 86.72-23.424l75.072 43.712c35.072-30.112 74.944-54.72 119.264-70.528L385.056 96c0-35.36 28.416-64 63.456-64l126.944 0c35.04 0 63.456 28.672 63.456 64l0 54.304c44.32 15.84 84.192 40.416 119.264 70.528l75.072-43.712c30.368-17.664 69.184-7.2 86.72 23.424l63.456 110.848C1000.992 342.048 990.592 381.184 960.256 398.848zM912.64 315.712l-31.744-55.424c-8.768-15.296-28.16-20.544-43.36-11.712l-88.192 51.328c-44.768-50.912-105.248-87.424-173.888-101.472L575.456 128c0-17.664-14.208-32-31.744-32l-63.488 0c-17.536 0-31.744 14.336-31.744 32l0 70.432C379.872 212.48 319.392 248.992 274.624 299.904L186.464 248.576C171.264 239.744 151.872 244.992 143.104 260.288L111.36 315.712c-8.768 15.296-3.552 34.88 11.616 43.712l88.512 51.552C200.96 442.784 194.656 476.576 194.656 512c0 35.424 6.304 69.184 16.864 101.024l-88.512 51.552c-15.168 8.832-20.384 28.416-11.616 43.712l31.744 55.424c8.768 15.296 28.16 20.544 43.36 11.712l88.16-51.328c44.768 50.912 105.248 87.424 173.92 101.472L448.576 896c0 17.664 14.208 32 31.744 32l63.488 0c17.536 0 31.744-14.336 31.744-32l0-70.432c68.672-14.048 129.152-50.56 173.92-101.472l88.16 51.328c15.168 8.832 34.592 3.584 43.36-11.712l31.744-55.424c8.768-15.296 3.552-34.88-11.616-43.712l-88.544-51.552c10.56-31.84 16.864-65.632 16.864-101.024 0-35.424-6.304-69.216-16.864-101.056l88.544-51.552C916.192 350.592 921.408 331.008 912.64 315.712zM512 672c-87.648 0-158.688-71.648-158.688-160 0-88.384 71.04-160 158.688-160 87.648 0 158.688 71.648 158.688 160C670.688 600.352 599.648 672 512 672zM512 416c-52.576 0-95.2 42.976-95.2 96 0 53.024 42.624 96 95.2 96 52.576 0 95.2-42.976 95.2-96C607.2 458.976 564.576 416 512 416z" p-id="7719" fill="#8a8a8a"></path></svg>