<?xml version="1.0" standalone="no"?><!DOCTYPE svg PUBLIC "-//W3C//DTD SVG 1.1//EN" "http://www.w3.org/Graphics/SVG/1.1/DTD/svg11.dtd"><svg t="1500902175175" class="icon" style="" viewBox="0 0 1025 1024" version="1.1" xmlns="http://www.w3.org/2000/svg" p-id="5841" xmlns:xlink="http://www.w3.org/1999/xlink" width="32.03125" height="32"><defs><style type="text/css"></style></defs><path d="M802.516 732.063c-29.634 0-57.523 11.572-78.569 32.638-20.955 21.022-32.505 48.891-32.505 78.459 0 29.7 11.55 57.568 32.572 78.547 20.979 21.022 48.846 32.594 78.502 32.594 29.591 0 57.438-11.571 78.504-32.659 21-20.935 32.57-48.824 32.57-78.481 0-29.523-11.57-57.393-32.638-78.525C859.954 743.635 832.085 732.063 802.516 732.063zM842.729 883.459c-10.645 10.732-24.932 16.606-40.213 16.606-15.347 0-29.656-5.874-40.3-16.606-10.732-10.798-16.628-25.129-16.628-40.3 0-15.149 5.896-29.436 16.605-40.256 10.732-10.688 25.041-16.606 40.322-16.606 15.215 0 29.503 5.918 40.213 16.606 10.731 10.732 16.627 25.019 16.627 40.256C859.356 858.418 853.461 872.728 842.729 883.459z" p-id="5842" fill="#8a8a8a"></path><path d="M490.184 766.29c-0.464-0.53-0.972-1.126-1.501-1.656-21.022-20.999-48.913-32.571-78.547-32.571-29.591 0-57.437 11.572-77.929 32.152l-0.663 0.485c-20.956 21.045-32.505 48.891-32.505 78.459 0 29.7 11.549 57.568 32.505 78.481l0.419 0.353c20.957 20.824 48.692 32.307 78.172 32.307 29.656 0 57.546-11.571 78.547-32.594l4.726-4.814-0.243 0c18.129-20.359 28.022-46.284 28.022-73.732C521.187 814.342 510.146 787.004 490.184 766.29zM369.879 802.903c10.688-10.688 24.997-16.606 40.256-16.606 15.215 0 29.501 5.918 40.256 16.717l0.928 0.883c10.158 10.665 15.723 24.621 15.723 39.263 0 14.773-5.609 28.729-15.833 39.461l-0.861 0.839c-10.732 10.71-25.02 16.606-40.212 16.606-15.326 0-29.612-5.874-40.256-16.606-10.732-10.775-16.65-25.086-16.65-40.3C353.229 827.967 359.147 813.679 369.879 802.903z" p-id="5843" fill="#8a8a8a"></path><path d="M1006.823 214.717c-9.076-8.745-21.332-15.546-34.537-19.079-7.155-1.899-14.199-2.827-20.979-2.827L261.323 192.811c-6.713 0-13.757 0.927-20.912 2.827-4.151 1.104-8.303 2.561-12.388 4.372l-24.224-91.576c-2.893-10.908-12.256-18.792-23.297-19.94L27.117 88.229c-14.95 0-27.117 12.167-27.117 27.117s12.167 27.117 27.117 27.117L156.85 142.463l31.357 118.229c0.287 2.341 0.75 4.593 1.391 6.845L297.03 669.26c4.659 17.666 13.448 32.616 25.438 43.282 12.963 11.571 28.531 17.444 46.307 17.444l475.058 0c17.732 0 33.322-5.873 46.352-17.444 11.902-10.622 20.69-25.571 25.438-43.282l107.453-401.722c1.147-4.527 1.743-8.965 1.743-13.161C1024.819 239.692 1018.594 225.979 1006.823 214.717zM854.146 672.109c-2.673 2.407-6.14 3.644-10.313 3.644L368.775 675.753c-4.174 0-7.641-1.236-10.334-3.644-3.931-3.556-7.199-9.54-9.142-16.849L278.326 389.83l-35.884-135.365c0.199-0.221 0.464-0.486 0.817-0.839 2.562-2.473 6.47-4.527 10.953-5.741 2.165-0.574 4.637-0.861 7.111-0.861l689.985 0c2.43 0 4.814 0.287 7.022 0.861 4.461 1.193 8.479 3.313 11.042 5.786 0.485 0.442 0.816 0.817 1.059 1.104L863.31 655.261C861.3 662.769 858.142 668.576 854.146 672.109z" p-id="5844" fill="#8a8a8a"></path></svg>