<?xml version="1.0" standalone="no"?><!DOCTYPE svg PUBLIC "-//W3C//DTD SVG 1.1//EN" "http://www.w3.org/Graphics/SVG/1.1/DTD/svg11.dtd"><svg t="1500903118636" class="icon" style="" viewBox="0 0 1024 1024" version="1.1" xmlns="http://www.w3.org/2000/svg" p-id="12794" xmlns:xlink="http://www.w3.org/1999/xlink" width="16" height="16"><defs><style type="text/css"></style></defs><path d="M916.7872 475.22816c15.60064-13.21472 25.51808-32.91648 25.51808-54.89664 0-39.6288-32.24576-71.87456-71.86944-71.87456h-23.85408l-16.33792-53.80608c-12.45696-40.78592-36.39808-69.75488-71.17312-86.1184-13.32736-6.31808-33.9968-12.66688-49.98144-12.66688h-75.71968v-10.30656c0-30.88896-20.00896-55.07584-45.52704-55.07584H448.896c-25.51808 0-45.52704 24.18176-45.52704 55.07584v10.30656H316.73344c-15.98976 0-36.61312 6.35904-49.98144 12.6464-34.78016 16.384-58.72128 45.35296-71.168 86.15936L179.2 348.45696h-20.00896c-39.6288 0-71.87456 32.24064-71.87456 71.87456 0 21.09952 9.12896 40.08448 23.63392 53.25824-27.65824 22.76352-45.44 57.8048-45.44 97.03936v135.61856c0 2.16064 0.69632 7.10144 1.31072 9.15456 2.75456 9.23648 9.7024 17.78176 20.79744 25.6256v85.39648c0 36.98688 30.01856 67.08736 66.8928 67.08736h46.88384c36.87424 0 66.8928-30.12608 66.8928-67.15392v-38.81984c14.02368 1.37728 27.48416 2.42176 39.936 3.31776 71.25504 5.13536 143.04256 5.56544 204.69248 5.56544s133.43232-0.44032 204.69248-5.56544a1556.224 1556.224 0 0 0 40.27904-3.34336v38.84544c0 37.02784 29.97248 67.15392 66.84672 67.15392h46.9248c36.87424 0 66.84672-30.1056 66.84672-67.08736v-85.632c10.92096-7.81824 17.82272-16.3584 20.53632-25.60512 0.57344-1.98656 1.26464-6.85568 1.26464-8.93952v-135.61856c-0.00512-38.31808-16.95232-72.61184-43.52-95.40096z m-41.63072-99.4816c22.41536 0 40.71424 18.25792 40.71424 40.71424a40.7552 40.7552 0 0 1-31.60064 39.70048l-24.45312-80.4096h15.33952z m-712.02304-0.6912h10.46016l-26.21952 86.13888c-16.75776-6.37952-28.71808-22.6304-28.71808-41.65632-0.00512-24.52992 19.98336-44.48256 44.47744-44.48256z m42.7264 481.99168H150.02624c-14.78144 0-26.37824-11.68384-26.37824-26.61376v-76.672a384.6656 384.6656 0 0 0 17.07008 5.25312c23.67488 6.73792 48.54784 11.91936 73.4208 16l18.10432 4.94592v50.39104c0 14.73024-11.81696 26.69568-26.38336 26.69568z m669.40928-1.58208h-54.16448c-14.06976 0-25.5232-11.60192-25.5232-25.87136v-48.8448l18.10432-4.9408c23.80288-3.93216 47.61088-8.92928 70.20032-15.36a404.48 404.48 0 0 0 16.896-5.21728v74.43456h0.00512c0.00512 14.47936-11.19232 25.79968-25.51808 25.79968z m49.67424-151.40352c-2.72896 2.39104-7.91552 5.504-14.80192 8.78592l-94.5152 25.79968c-33.75104 5.45792-67.77856 8.42752-96.56832 10.50112-71.40352 5.1456-143.82592 5.56544-206.1568 5.56544s-134.75328-0.42496-206.1568-5.56544c-28.5696-2.05312-62.2336-5.00736-95.72352-10.37312l-95.7696-26.13248c-6.7072-3.21536-11.75552-6.23616-14.39232-8.60672v-134.59968c0-40.48384 28.3904-74.12224 65.41312-80.22528h1.56672c2.14528 0 4.2496-0.29184 6.26176-0.8704 1.38752-0.06656 2.816-0.11264 4.2496-0.11264H847.4624c42.74176 0 77.48096 36.43392 77.48096 81.21344v134.62016z" fill="" p-id="12795"></path><path d="M803.01568 306.3296c-9.02144-29.66016-25.11872-49.59232-49.20832-60.91264-10.20416-4.82816-24.58112-8.7296-32.11264-8.7296H314.4192c-7.5264 0-21.90336 3.90144-32.06144 8.70912-0.04608 0-0.04608 0-0.04608 0.02048-24.07936 11.3152-40.18176 31.25248-49.20832 60.93312l-43.904 144.09216h657.67424l-43.85792-144.11264z" fill="#E2E2E2" p-id="12796"></path><path d="M607.10912 173.83424c0-12.30336-3.15904-19.81952-4.26496-21.16096l-172.89216 1.29536c2.10944 0.04096-0.99328 7.54688-0.99328 19.85024v19.81952h178.1504v-19.80416z" fill="#E12321" p-id="12797"></path><path d="M263.296 538.9056c-42.38336 0-76.85632 34.47296-76.85632 76.85632 0 42.38336 34.47296 76.85632 76.85632 76.85632s76.85632-34.47296 76.85632-76.85632c0-42.38848-34.46784-76.85632-76.85632-76.85632z m0 118.78912c-23.10656 0-41.9328-18.80064-41.9328-41.9328 0-23.13728 18.82624-41.9328 41.9328-41.9328s41.9328 18.80064 41.9328 41.9328c0.01024 23.13216-18.816 41.9328-41.9328 41.9328zM745.50784 538.9056c-42.38336 0-76.85632 34.47296-76.85632 76.85632 0 42.38336 34.47296 76.85632 76.85632 76.85632s76.85632-34.47296 76.85632-76.85632c0-42.38848-34.47296-76.85632-76.85632-76.85632z m0 118.78912c-23.10656 0-41.9328-18.80064-41.9328-41.9328 0-23.13728 18.82624-41.9328 41.9328-41.9328s41.9328 18.80064 41.9328 41.9328c0.01024 23.13216-18.82112 41.9328-41.9328 41.9328z" fill="" p-id="12798"></path></svg>