<?xml version="1.0" standalone="no"?><!DOCTYPE svg PUBLIC "-//W3C//DTD SVG 1.1//EN" "http://www.w3.org/Graphics/SVG/1.1/DTD/svg11.dtd"><svg t="1499696336510" class="icon" style="" viewBox="0 0 1024 1024" version="1.1" xmlns="http://www.w3.org/2000/svg" p-id="3274" xmlns:xlink="http://www.w3.org/1999/xlink" width="16" height="16"><defs><style type="text/css"></style></defs><path d="M428.864 597.952c-133.824 0-242.688-108.864-242.688-242.688S295.04 112.576 428.864 112.576s242.688 108.864 242.688 242.688S562.688 597.952 428.864 597.952zM428.864 144.576c-116.16 0-210.688 94.528-210.688 210.688s94.528 210.688 210.688 210.688c116.16 0 210.688-94.528 210.688-210.688S545.024 144.576 428.864 144.576z" p-id="3275" fill="#e6e6e6"></path><path d="M800.896 945.6c-8.384 0-15.36-6.464-15.936-14.912-12.736-186.56-169.216-332.736-356.096-332.736-186.944 0-343.36 146.176-356.096 332.736-0.64 8.896-8.896 15.68-17.088 14.848-8.832-0.576-15.488-8.192-14.848-17.024 13.888-203.392 184.32-362.624 388.032-362.624s374.08 159.232 387.968 362.624c0.64 8.832-6.08 16.448-14.848 17.024C801.6 945.6 801.28 945.6 800.896 945.6z" p-id="3276" fill="#e6e6e6"></path><path d="M612.544 595.776c-32.96 0-64.704-6.912-94.464-20.608C510.08 571.456 506.624 561.984 510.272 553.92s13.312-11.52 21.248-7.872c25.472 11.712 52.736 17.664 81.088 17.664 107.2 0 194.432-87.232 194.432-194.496S719.744 174.72 612.544 174.72c-18.176 0-36.096 2.496-53.312 7.36-8.64 2.56-17.344-2.56-19.776-11.008C537.024 162.624 541.952 153.792 550.464 151.36c20.096-5.696 40.96-8.64 62.08-8.64 124.864 0 226.432 101.568 226.432 226.496S737.408 595.776 612.544 595.776z" p-id="3277" fill="#e6e6e6"></path><path d="M958.016 918.592c-8.384 0-15.36-6.464-15.936-14.912-11.84-172.608-156.544-307.904-329.472-307.904-30.656 0-60.864 4.096-89.92 12.288C514.112 610.752 505.344 605.568 502.848 596.992 500.48 588.48 505.408 579.712 513.92 577.344 545.856 568.32 579.008 563.776 612.544 563.776c189.76 0 348.416 148.352 361.344 337.728 0.64 8.832-6.08 16.448-14.848 17.024C958.72 918.592 958.4 918.592 958.016 918.592z" p-id="3278" fill="#e6e6e6"></path></svg>