<?xml version="1.0" standalone="no"?><!DOCTYPE svg PUBLIC "-//W3C//DTD SVG 1.1//EN" "http://www.w3.org/Graphics/SVG/1.1/DTD/svg11.dtd"><svg t="1499696484197" class="icon" style="" viewBox="0 0 1024 1024" version="1.1" xmlns="http://www.w3.org/2000/svg" p-id="6092" xmlns:xlink="http://www.w3.org/1999/xlink" width="16" height="16"><defs><style type="text/css"></style></defs><path d="M643.776 500.736C699.552 459.936 736 394.24 736 320c0-123.52-100.512-224-224-224-123.52 0-224 100.48-224 224 0 74.24 36.448 139.936 92.192 180.736C206.304 556.608 80 719.744 80 912c0 17.696 14.336 32 32 32s32-14.304 32-32C144 709.088 309.088 544 512 544c202.912 0 368 165.088 368 368 0 17.696 14.304 32 32 32s32-14.304 32-32C944 719.744 817.728 556.576 643.776 500.736zM352 320c0-88.224 71.776-160 160-160s160 71.776 160 160-71.776 160-160 160S352 408.224 352 320z" p-id="6093" fill="#ffffff"></path></svg>