<?xml version="1.0" standalone="no"?><!DOCTYPE svg PUBLIC "-//W3C//DTD SVG 1.1//EN" "http://www.w3.org/Graphics/SVG/1.1/DTD/svg11.dtd"><svg t="1499737752066" class="icon" style="" viewBox="0 0 1024 1024" version="1.1" xmlns="http://www.w3.org/2000/svg" p-id="2392" xmlns:xlink="http://www.w3.org/1999/xlink" width="16" height="16"><defs><style type="text/css"></style></defs><path d="M830.658 315.669c-16.007 0-23.6 13.462-23.6 30.17v161.55c-2.531 161.698-137.843 293.214-294.964 293.214-157.808 0.027-293.133-132.068-295.126-294.372v-160.393c0-16.68-7.566-30.17-23.6-30.17s-23.559 13.463-23.559 30.17v150.295c2.181 185.204 142.568 337.613 318.591 352.813v93.497h-136.995c-15.994 0-28.972 8.077-28.972 24.785s12.938 24.771 28.972 24.771h321.257c16.007 0 28.944-8.077 28.944-24.771s-12.938-24.785-28.944-24.785h-137.076v-93.511c175.309-15.199 315.642-166.935 318.564-351.264v-151.831c0-16.68-7.499-30.17-23.532-30.17z" p-id="2393" fill="#ffffff"></path><path d="M512.067 32c-110.191 0-199.852 92.555-199.852 206.314v260.702c0 113.758 89.661 206.314 199.852 206.314s199.852-92.595 199.852-206.314v-260.702c0-113.758-89.728-206.314-199.852-206.314zM663.521 503.607c0 83.347-67.945 151.131-151.453 151.131s-151.453-67.784-151.453-151.131v-269.897c0-83.306 67.945-151.117 151.453-151.117s151.453 67.811 151.453 151.117z" p-id="2394" fill="#ffffff"></path></svg>