<?xml version="1.0" standalone="no"?><!DOCTYPE svg PUBLIC "-//W3C//DTD SVG 1.1//EN" "http://www.w3.org/Graphics/SVG/1.1/DTD/svg11.dtd"><svg t="1500904725707" class="icon" style="" viewBox="0 0 1024 1024" version="1.1" xmlns="http://www.w3.org/2000/svg" p-id="17109" xmlns:xlink="http://www.w3.org/1999/xlink" width="48" height="48"><defs><style type="text/css"></style></defs><path d="M885.504 156.8 751.232 156.8l0-55.04c0-18.816-15.232-34.048-34.048-34.048s-34.048 15.104-34.048 33.92l0 55.04L340.992 156.672l0-55.04c0-18.816-15.232-34.048-34.048-34.048s-34.048 15.232-34.048 34.048l0 55.04L138.624 156.672c-58.112 0-105.472 47.36-105.472 105.472l0 583.552c0 58.112 47.36 105.472 105.472 105.472l746.624 0c58.112 0 105.472-47.36 105.472-105.472L990.72 262.272C990.976 204.032 943.616 156.8 885.504 156.8zM933.504 845.824c0 26.496-21.632 48-48.128 48L138.752 893.824c-26.496 0-48.128-21.504-48.128-48L90.624 262.272c0-26.496 21.504-48.128 48.128-48.128l134.272 0 0 39.68c0 18.816 15.232 34.048 34.048 34.048s34.048-15.232 34.048-34.048l0-39.68 342.016 0 0 39.68c0 18.816 15.232 34.048 34.048 34.048s34.048-15.232 34.048-34.048l0-39.68 134.144 0c26.496 0 48.128 21.632 48.128 48.128L933.504 845.824 933.504 845.824z" p-id="17110" fill="#d81e06"></path><path d="M341.632 398.592l-38.4 0c-18.816 0-34.048 15.232-34.048 34.048s15.232 34.048 34.048 34.048l38.4 0c18.816 0 34.048-15.232 34.048-34.048S360.448 398.592 341.632 398.592z" p-id="17111" fill="#d81e06"></path><path d="M531.328 398.592l-38.4 0c-18.816 0-34.048 15.232-34.048 34.048s15.232 34.048 34.048 34.048l38.4 0c18.816 0 34.048-15.232 34.048-34.048S550.144 398.592 531.328 398.592z" p-id="17112" fill="#d81e06"></path><path d="M721.024 398.592l-38.4 0c-18.816 0-34.048 15.232-34.048 34.048s15.232 34.048 34.048 34.048l38.4 0c18.816 0 34.048-15.232 34.048-34.048S739.84 398.592 721.024 398.592z" p-id="17113" fill="#d81e06"></path><path d="M341.632 550.784l-38.4 0c-18.816 0-34.048 15.232-34.048 34.048s15.232 34.048 34.048 34.048l38.4 0c18.816 0 34.048-15.232 34.048-34.048S360.448 550.784 341.632 550.784z" p-id="17114" fill="#d81e06"></path><path d="M531.328 550.784l-38.4 0c-18.816 0-34.048 15.232-34.048 34.048s15.232 34.048 34.048 34.048l38.4 0c18.816 0 34.048-15.232 34.048-34.048S550.144 550.784 531.328 550.784z" p-id="17115" fill="#d81e06"></path><path d="M721.024 550.784l-38.4 0c-18.816 0-34.048 15.232-34.048 34.048s15.232 34.048 34.048 34.048l38.4 0c18.816 0 34.048-15.232 34.048-34.048S739.84 550.784 721.024 550.784z" p-id="17116" fill="#d81e06"></path><path d="M341.632 702.72l-38.4 0c-18.816 0-34.048 15.232-34.048 34.048 0 18.816 15.232 34.048 34.048 34.048l38.4 0c18.816 0 34.048-15.232 34.048-34.048S360.448 702.72 341.632 702.72z" p-id="17117" fill="#d81e06"></path><path d="M531.328 702.72l-38.4 0c-18.816 0-34.048 15.232-34.048 34.048 0 18.816 15.232 34.048 34.048 34.048l38.4 0c18.816 0 34.048-15.232 34.048-34.048S550.144 702.72 531.328 702.72z" p-id="17118" fill="#d81e06"></path><path d="M721.024 702.72l-38.4 0c-18.816 0-34.048 15.232-34.048 34.048 0 18.816 15.232 34.048 34.048 34.048l38.4 0c18.816 0 34.048-15.232 34.048-34.048S739.84 702.72 721.024 702.72z" p-id="17119" fill="#d81e06"></path></svg>