<?xml version="1.0" standalone="no"?><!DOCTYPE svg PUBLIC "-//W3C//DTD SVG 1.1//EN" "http://www.w3.org/Graphics/SVG/1.1/DTD/svg11.dtd"><svg t="1500904631278" class="icon" style="" viewBox="0 0 1026 1024" version="1.1" xmlns="http://www.w3.org/2000/svg" p-id="15416" xmlns:xlink="http://www.w3.org/1999/xlink" width="48.09375" height="48"><defs><style type="text/css"></style></defs><path d="M330.88 724c-136.256 0-227.04-12.256-227.04-71.744 0-48.64 70.912-100.448 161.44-117.92 2.88-1.76 7.232-12.768 7.744-19.808-2.816-10.144-22.208-35.392-27.552-44.832-14.368-25.312-24.8-43.616-24.8-78.048 0-71.36 45.312-121.216 110.208-121.216 63.872 0 110.208 51.808 110.208 123.2 0 46.528-18.592 93.28-48.512 122.016-4.768 5.056-4.256 10.4-3.488 13.056 1.152 3.904 4.128 6.88 7.776 7.776 89.952 17.184 161.056 68.448 161.056 116.544C557.92 711.936 467.168 724 330.88 724zM307.68 505.632c8.448 20.896-7.328 60.32-34.368 66.56-78.88 15.264-130.784 58.24-130.784 80.064 0 7.744 13.568 33.056 188.352 33.056 170.016 0 188.352-22.624 188.352-32.32 0-21.44-52.064-63.744-130.56-78.752-17.888-4.32-31.616-17.504-36.672-34.592-5.312-17.888-0.352-37.088 13.184-51.296 22.848-22.016 37.248-58.944 37.248-94.72 0-50.528-28.736-84.512-71.52-84.512-43.424 0-71.488 32.416-71.488 82.528 0 24.192 6.432 34.944 19.744 58.976C290.432 471.008 301.6 490.624 307.68 505.632z" p-id="15417" fill="#d81e06"></path><path d="M876.064 361.056l-259.616 0c-10.688 0-19.328-8.672-19.328-19.328 0-10.688 8.672-19.328 19.328-19.328l259.616 0c10.688 0 19.328 8.672 19.328 19.328C895.392 352.384 886.752 361.056 876.064 361.056z" p-id="15418" fill="#d81e06"></path><path d="M876.064 464.896l-259.616 0c-10.688 0-19.328-8.64-19.328-19.328 0-10.688 8.672-19.328 19.328-19.328l259.616 0c10.688 0 19.328 8.672 19.328 19.328C895.392 456.256 886.752 464.896 876.064 464.896z" p-id="15419" fill="#d81e06"></path><path d="M668.384 932.192l-311.52 0c-10.688 0-19.328-8.672-19.328-19.36s8.64-19.328 19.328-19.328l311.52 0c10.688 0 19.328 8.64 19.328 19.328S679.072 932.192 668.384 932.192z" p-id="15420" fill="#d81e06"></path><path d="M746.24 978.048c-10.688 0-19.36-8.64-19.36-19.328l0-91.744c0-10.688 8.672-19.328 19.36-19.328s19.328 8.64 19.328 19.328l0 91.744C765.6 969.44 756.928 978.048 746.24 978.048z" p-id="15421" fill="#d81e06"></path><path d="M278.944 978.048c-10.688 0-19.328-8.64-19.328-19.328l0-91.744c0-10.688 8.672-19.328 19.328-19.328 10.688 0 19.328 8.64 19.328 19.328l0 91.744C298.304 969.44 289.664 978.048 278.944 978.048z" p-id="15422" fill="#d81e06"></path><path d="M982.528 932.192l-158.368 0c-10.688 0-19.328-8.672-19.328-19.36s8.672-19.328 19.328-19.328l158.368 0c3.616 0 4-4.64 4-6.56L986.528 159.968c0-1.536-0.288-6.624-4-6.624L47.872 153.344c-4.64 0-9.184 4.16-9.184 6.624l0 726.976c0 2.368 4.544 6.56 9.184 6.56l153.216 0c10.688 0 19.328 8.64 19.328 19.328s-8.64 19.36-19.328 19.36L47.872 932.192C22.4 932.192 0 911.008 0 886.944L0 159.968c0-24.128 22.4-45.312 47.872-45.312l934.656 0c24.32 0 42.688 19.456 42.688 45.312l0 726.976C1025.216 912.672 1006.848 932.192 982.528 932.192z" p-id="15423" fill="#d81e06"></path></svg>